<svg width="50" height="50" viewBox="0 0 50 50" fill="none" xmlns="http://www.w3.org/2000/svg">
<g clip-path="url(#clip0)">
<path d="M46.7042 0.878906H3.2958C1.47852 0.878906 0 2.35625 0 4.17227V36.068C0 37.884 1.47852 39.3613 3.2958 39.3613H18.4831L17.8516 42.5731H14.9195C13.1114 42.5731 11.6403 44.0419 11.6403 45.8472V47.9075C11.6403 48.5768 12.1862 49.1212 12.8571 49.1212H38.1531C38.8226 49.1212 39.3673 48.5768 39.3673 47.9075V45.8472C39.3673 44.0419 37.8963 42.5731 36.0881 42.5731H33.1564L32.5268 39.3613H46.7042C48.5215 39.3613 50 37.884 50 36.068V4.17227C50 2.35625 48.5215 0.878906 46.7042 0.878906ZM31.6637 42.573H27.1744C26.7699 42.573 26.442 42.9009 26.442 43.3055C26.442 43.7101 26.7699 44.0379 27.1744 44.0379H36.0881C37.0886 44.0379 37.9024 44.8495 37.9024 45.8471V47.6562H13.1052V45.8472C13.1052 44.8495 13.919 44.038 14.9195 44.038H23.7917C24.1962 44.038 24.5241 43.7102 24.5241 43.3056C24.5241 42.901 24.1962 42.5731 23.7917 42.5731H19.3444L19.976 39.3613H31.034L31.6637 42.573ZM48.5352 36.068C48.5352 37.0762 47.7138 37.8965 46.7042 37.8965H19.3686C19.3678 37.8965 19.3671 37.8965 19.3664 37.8965H3.2958C2.28623 37.8965 1.46484 37.0762 1.46484 36.068V4.17227C1.46484 3.16396 2.28623 2.34375 3.2958 2.34375H46.7042C47.7138 2.34375 48.5352 3.16396 48.5352 4.17227V36.068Z" fill="white"/>
<path d="M44.7554 4.87793H5.24461C4.54158 4.87793 3.9696 5.44844 3.9696 6.14961V34.0877C3.9696 34.7904 4.54158 35.3622 5.2447 35.3622L23.7918 35.3595C24.1963 35.3594 24.5242 35.0314 24.5241 34.627C24.5241 34.2224 24.1961 33.8945 23.7916 33.8946L5.43445 33.8974V6.34277H44.5628V33.8974L27.1745 33.8946C27.1745 33.8946 27.1745 33.8946 27.1744 33.8946C26.7699 33.8946 26.442 34.2225 26.442 34.627C26.442 35.0314 26.7697 35.3594 27.1743 35.3595L44.7554 35.3622C45.4569 35.3622 46.0276 34.7905 46.0276 34.0877V6.14971C46.0276 5.44844 45.4569 4.87793 44.7554 4.87793Z" fill="white"/>
<path d="M31.6854 27.9784V24.0181C31.6854 23.6135 31.3575 23.2856 30.953 23.2856C30.5485 23.2856 30.2206 23.6135 30.2206 24.0181V27.9784C30.2206 28.383 30.5485 28.7108 30.953 28.7108C31.3575 28.7108 31.6854 28.383 31.6854 27.9784Z" fill="white"/>
<path d="M36.6239 27.9784V20.0605C36.6239 19.656 36.296 19.3281 35.8915 19.3281C35.487 19.3281 35.1591 19.656 35.1591 20.0605V27.9784C35.1591 28.383 35.487 28.7108 35.8915 28.7108C36.296 28.7108 36.6239 28.383 36.6239 27.9784Z" fill="white"/>
<path d="M41.5625 27.9783V14.2803C41.5625 13.8757 41.2346 13.5479 40.8301 13.5479C40.4256 13.5479 40.0977 13.8757 40.0977 14.2803V27.9783C40.0977 28.3829 40.4256 28.7107 40.8301 28.7107C41.2346 28.7107 41.5625 28.3829 41.5625 27.9783Z" fill="white"/>
<path d="M25.3944 23.7268C25.4886 23.5289 25.5742 23.3278 25.6511 23.1246H26.0145C26.9084 23.1246 27.6355 22.399 27.6355 21.5071V19.1535C27.6355 18.2602 26.9084 17.5333 26.0145 17.5333H25.6971C25.6186 17.3168 25.5306 17.1028 25.4335 16.8921L25.6575 16.6683C26.2866 16.0396 26.2875 15.0138 25.657 14.3787L23.9883 12.7144C23.3596 12.0862 22.3336 12.0854 21.6977 12.7155L21.4759 12.9382C21.2648 12.8411 21.0507 12.7531 20.8341 12.6749V12.3558C20.8341 11.4639 20.1069 10.7383 19.2131 10.7383H16.8573C15.9635 10.7383 15.2363 11.4639 15.2363 12.3558V12.7214C15.0334 12.7981 14.8328 12.8837 14.635 12.9776L14.3694 12.7122C13.7369 12.0854 12.7108 12.0861 12.0822 12.7143L10.4158 14.3791C10.1091 14.6855 9.9406 15.0935 9.94148 15.528C9.94236 15.9611 10.1116 16.3668 10.4147 16.6672L10.724 16.9774C10.6419 17.1603 10.5669 17.3459 10.4992 17.5333H10.0559C9.16209 17.5333 8.43494 18.2601 8.43494 19.1535V21.5071C8.43494 22.399 9.16209 23.1246 10.0559 23.1246H10.5463C10.6129 23.2996 10.6854 23.4723 10.7638 23.642L10.4159 23.9897C10.1092 24.2962 9.9407 24.7041 9.94158 25.1387C9.94246 25.5718 10.1117 25.9774 10.4159 26.2789L12.0801 27.9415C12.3838 28.2474 12.7894 28.4163 13.2224 28.4172C13.6595 28.4142 14.0649 28.2499 14.3714 27.9435L14.72 27.5954C14.8893 27.6735 15.0617 27.746 15.2363 27.8126V28.3022C15.2363 29.1941 15.9635 29.9197 16.8573 29.9197H19.2131C20.1069 29.9197 20.8341 29.1941 20.8341 28.3022V27.8601C21.0209 27.7927 21.2064 27.7176 21.3901 27.6352L21.6989 27.9436C22.0047 28.2491 22.4113 28.4173 22.8445 28.4173H22.8479C23.2809 28.4163 23.6866 28.2475 23.9878 27.9441L25.6575 26.2788C26.2866 25.6502 26.2875 24.6243 25.6575 23.9897L25.3944 23.7268ZM23.9799 24.3843L24.62 25.0238C24.6786 25.0828 24.6796 25.1851 24.6225 25.242L22.9508 26.9094C22.9157 26.9447 22.8738 26.9521 22.8449 26.9522C22.8165 26.952 22.7715 26.9444 22.7342 26.9072L22.0559 26.2297C21.8286 26.0024 21.4795 25.9502 21.1953 26.1007C20.7749 26.3234 20.3405 26.4983 19.9041 26.6205C19.5878 26.7091 19.3691 26.9974 19.3691 27.3259V28.302C19.3691 28.3848 19.2976 28.4547 19.213 28.4547H16.8572C16.774 28.4547 16.7011 28.3834 16.7011 28.302V27.2899C16.7011 26.9681 16.491 26.684 16.1833 26.5896C15.7473 26.456 15.3249 26.2782 14.9276 26.0609C14.8172 26.0006 14.6964 25.9712 14.5765 25.9712C14.387 25.9712 14.1996 26.0447 14.0587 26.1854L13.3361 26.9072C13.2989 26.9444 13.2556 26.9522 13.2258 26.9522C13.194 26.955 13.1547 26.9449 13.1175 26.9072L11.4489 25.2403C11.4137 25.2056 11.4062 25.1642 11.4062 25.1355C11.4062 25.1059 11.4139 25.063 11.451 25.0259L12.1734 24.304C12.4037 24.074 12.4545 23.7195 12.2981 23.4341C12.0803 23.0365 11.9025 22.6141 11.7693 22.1782C11.6753 21.8701 11.3909 21.6597 11.0688 21.6597H10.0556C9.97244 21.6597 9.89949 21.5884 9.89949 21.507V19.1534C9.89949 19.0692 9.97097 18.998 10.0556 18.998H11.0328C11.3611 18.998 11.6493 18.7796 11.738 18.4635C11.8618 18.022 12.0366 17.5887 12.2573 17.1755C12.4091 16.8914 12.3574 16.5414 12.13 16.3133L11.4486 15.6298C11.4135 15.595 11.4059 15.5536 11.4059 15.525C11.4059 15.4954 11.4136 15.4524 11.4507 15.4153L13.1171 13.7505C13.1751 13.6926 13.2782 13.6934 13.3358 13.7505L13.978 14.392C14.2102 14.6239 14.5684 14.6731 14.8547 14.5122C15.2796 14.2732 15.7249 14.0833 16.1782 13.9478C16.4884 13.8552 16.7009 13.5698 16.7009 13.2461V12.3556C16.7009 12.2743 16.7738 12.2029 16.857 12.2029H19.2128C19.2974 12.2029 19.3689 12.2729 19.3689 12.3556V13.2074C19.3689 13.5348 19.5861 13.8224 19.9009 13.9119C20.3702 14.0454 20.8314 14.2344 21.2717 14.4733C21.557 14.6282 21.9105 14.5767 22.1399 14.3466L22.7319 13.7525C22.7915 13.6936 22.8947 13.6925 22.9531 13.7509L24.6198 15.4131C24.6784 15.4721 24.6794 15.5743 24.6219 15.6317L24.0239 16.2291C23.7942 16.4586 23.743 16.8119 23.8981 17.0972C24.1373 17.5368 24.3264 17.9976 24.46 18.4664C24.5498 18.781 24.8373 18.9978 25.1643 18.9978H26.0142C26.1004 18.9978 26.1704 19.0676 26.1704 19.1532V21.5068C26.1704 21.5895 26.0989 21.6595 26.0142 21.6595H25.1256C24.8017 21.6595 24.5163 21.8723 24.4237 22.1825C24.2885 22.6359 24.0985 23.0813 23.8591 23.5063C23.698 23.7932 23.7472 24.1519 23.9799 24.3843Z" fill="white"/>
<path d="M18.0365 17.3618C16.3978 17.3618 15.0646 18.6929 15.0646 20.3289C15.0646 21.9665 16.3978 23.2987 18.0365 23.2987C19.6738 23.2987 21.0057 21.9664 21.0057 20.3289C21.0057 18.6929 19.6738 17.3618 18.0365 17.3618ZM18.0365 21.8339C17.2055 21.8339 16.5294 21.1588 16.5294 20.3289C16.5294 19.5006 17.2055 18.8267 18.0365 18.8267C18.866 18.8267 19.5408 19.5005 19.5408 20.3289C19.5408 21.1588 18.866 21.8339 18.0365 21.8339Z" fill="white"/>
</g>
<defs>
<clipPath id="clip0">
<rect width="50" height="50" fill="white"/>
</clipPath>
</defs>
</svg>
