<svg width="50" height="50" viewBox="0 0 50 50" fill="none" xmlns="http://www.w3.org/2000/svg">
<path d="M47.4167 24.5831H41.6667V9.58311C41.6639 7.28311 39.8 5.41924 37.5 5.4165H12.5C10.2 5.41924 8.33613 7.28311 8.3333 9.5832V14.5832H3.76162C1.68506 14.5854 0.00224609 16.2683 0 18.3448V40.8215C0.00224609 42.898 1.68506 44.5809 3.76162 44.5831H17.0716C18.6575 44.5783 20.0696 43.5778 20.5999 42.0831H35C35.4603 42.0831 35.8333 41.7101 35.8333 41.2498V39.5831C35.8333 38.2024 34.714 37.0831 33.3333 37.0831H30.8333V33.7498H37.5V41.9998C37.5 43.4266 38.6566 44.5831 40.0833 44.5831H47.4166C48.8434 44.5831 49.9999 43.4265 49.9999 41.9998V27.1665C50 25.7397 48.8434 24.5831 47.4167 24.5831ZM19.1667 40.8215C19.1658 41.9781 18.2283 42.9155 17.0717 42.9165H3.76162C2.60498 42.9156 1.66758 41.9781 1.6666 40.8215V40.4165H19.1666V40.8215H19.1667ZM19.1667 38.7498H1.6667V20.4165H19.1667V38.7498ZM19.1667 18.7498H1.6667V18.3448C1.66758 17.1882 2.60508 16.2508 3.76172 16.2498H17.0717C18.2283 16.2507 19.1657 17.1882 19.1667 18.3448V18.7498ZM33.3333 38.7498C33.7936 38.7498 34.1666 39.1229 34.1666 39.5831V40.4164H20.8333V38.7498H33.3333ZM20.8333 37.0831V33.7498H29.1666V37.0831H20.8333ZM37.5 32.0831H30H20.8333V29.5831H37.5V32.0831ZM37.5 27.1665V27.9165H20.8333V18.3448C20.831 16.2683 19.1481 14.5854 17.0717 14.5832H10V9.5832C10 8.20254 11.1192 7.0832 12.5 7.0832H37.5C38.8807 7.0832 40 8.20244 40 9.5832V24.5915C38.6092 24.6363 37.5038 25.7749 37.5 27.1665ZM48.3333 41.9998C48.3333 42.5061 47.9229 42.9165 47.4166 42.9165H40.0833C39.577 42.9165 39.1666 42.5061 39.1666 41.9998V41.2498H48.3333V41.9998ZM48.3333 39.5831H39.1666V29.5831H48.3333V39.5831ZM48.3333 27.9165H39.1666V27.1665C39.1666 26.6603 39.577 26.2498 40.0833 26.2498H47.4166C47.9229 26.2498 48.3333 26.6603 48.3333 27.1665V27.9165Z" fill="white"/>
</svg>
