<svg width="14" height="12" viewBox="0 0 14 12" fill="none" xmlns="http://www.w3.org/2000/svg">
<path d="M13.6471 5.99253C13.6538 5.75253 13.5738 5.50586 13.3871 5.32586L8.87381 0.825859C8.61381 0.565859 8.19381 0.565859 7.93381 0.825859C7.67381 1.08586 7.67381 1.50586 7.93381 1.76586L11.5138 5.33252H0.993815C0.627148 5.33252 0.327148 5.62586 0.327148 5.99919C0.327148 6.37252 0.627148 6.66586 0.993815 6.66586H11.4471L7.94048 10.1592C7.68048 10.4192 7.68048 10.8392 7.94048 11.0992C8.07382 11.2325 8.24048 11.2925 8.41382 11.2925C8.58715 11.2925 8.75381 11.2259 8.88715 11.0992L13.4005 6.5992C13.5005 6.4992 13.5671 6.37919 13.6071 6.25919C13.6405 6.17919 13.6605 6.09252 13.6605 5.99919L13.6471 5.99253Z" fill="black"/>
</svg>
