<svg width="40" height="32" viewBox="0 0 40 32" fill="none" xmlns="http://www.w3.org/2000/svg">
<path d="M32.1748 14.9566L25.0187 0.554187C24.8494 0.213468 24.519 0.00116286 24.1566 0C24.1556 0 24.1547 0 24.1537 0C23.7924 0 23.4622 0.210063 23.2915 0.548872L16.7344 13.5613C16.6261 13.7761 16.6458 14.0384 16.7849 14.2322L18.3899 16.47C18.5675 16.7177 18.8371 16.8666 19.1297 16.8787C19.4215 16.8916 19.7021 16.7647 19.8972 16.5325L22.4347 13.5134L27.3673 19.7045C27.5515 19.9356 27.8205 20.0697 28.1054 20.0723C28.1082 20.0723 28.111 20.0723 28.1138 20.0723C28.3956 20.0723 28.6633 19.9434 28.8492 19.7179L31.7726 16.1739C31.7894 16.1535 31.805 16.132 31.8192 16.1094L32.144 15.5927C32.2633 15.4028 32.2752 15.1586 32.1748 14.9566ZM30.8676 15.3843L28.1163 18.7199L23.185 12.5303C23.0021 12.3008 22.7347 12.1667 22.4516 12.1627C22.4473 12.1626 22.443 12.1626 22.4386 12.1626C22.1603 12.1626 21.895 12.2886 21.7093 12.5097L19.1795 15.5194L17.9436 13.7961L24.1526 1.47434L30.9774 15.2098L30.8676 15.3843Z" fill="white"/>
<path d="M39.8856 30.4741L35.292 21.2296C35.1411 20.9258 34.7873 20.8097 34.5015 20.9702C34.2158 21.1306 34.1066 21.5069 34.2575 21.8107L38.7024 30.756H23.1194C23.1009 30.6595 16.3299 16.9987 16.3299 16.9987L17.3363 15.0015L18.3898 16.4705C18.5674 16.7181 18.837 16.867 19.1296 16.8791C19.4213 16.892 19.702 16.7651 19.897 16.5329L22.4346 13.5138L27.3672 19.7049C27.5513 19.936 27.8204 20.0701 28.1052 20.0727C28.1081 20.0727 28.1109 20.0727 28.1137 20.0727C28.3955 20.0727 28.6631 19.9438 28.8492 19.7183C28.8511 19.716 28.8531 19.7136 28.8549 19.7112L31.5438 16.3497L32.6369 18.5495C32.7878 18.8533 33.1417 18.9695 33.4274 18.8089C33.7131 18.6484 33.8224 18.2722 33.6714 17.9684L25.0185 0.554187C24.8492 0.213468 24.5188 0.00116286 24.1564 0H24.1535C23.7922 0 23.462 0.210063 23.2913 0.548955L17.1482 12.7404L16.7344 13.5616C16.7344 13.5617 16.7343 13.5618 16.7343 13.5619L15.6709 15.6723L12.5091 9.30922C12.382 9.05364 12.1645 8.87032 11.9106 8.79415C11.8259 8.76874 11.7373 8.7552 11.6466 8.75495C11.6456 8.75495 11.6447 8.75495 11.6438 8.75495C11.6316 8.75495 11.6197 8.75578 11.6077 8.75628C11.5977 8.75661 11.5877 8.75669 11.5779 8.75736C11.5689 8.75802 11.5601 8.75927 11.5512 8.76018C11.5379 8.76151 11.5246 8.76259 11.5115 8.7645C11.4997 8.76616 11.4881 8.76865 11.4764 8.77081C11.4666 8.77264 11.4567 8.77405 11.447 8.77621C11.1656 8.83735 10.9206 9.02789 10.7815 9.30398L8.64008 13.5539L5.03836 20.7019C5.03774 20.7031 5.03727 20.7044 5.03664 20.7057L0.117109 30.4688C-0.0467974 30.7942 -0.0382037 31.1775 0.140078 31.4942C0.318437 31.811 0.632187 32 0.979375 32H39.0206C39.3666 32 39.6798 31.8119 39.8584 31.4968C40.0371 31.1818 40.0472 30.7994 39.8856 30.4741ZM18.1206 13.4449L24.1525 1.47476L30.9551 15.1656L28.1139 18.7173L23.1849 12.5307C23.0019 12.301 22.7345 12.167 22.4515 12.163C22.4471 12.163 22.4428 12.163 22.4385 12.163C22.1602 12.163 21.8949 12.289 21.7092 12.51L19.1794 15.5197L17.9434 13.7965L18.1206 13.4449ZM1.29992 30.7558L5.73008 21.9637L7.43805 23.4848C7.62227 23.6488 7.84508 23.7293 8.06664 23.7293C8.33532 23.7293 8.60211 23.6109 8.7961 23.3799L10.7551 21.0455L12.0168 22.3765C12.2462 22.6184 12.6166 22.6169 12.8442 22.3731C13.0718 22.1292 13.0703 21.7353 12.841 21.4934L11.4356 20.0109C11.2459 19.8109 10.9848 19.7016 10.7169 19.7096C10.4498 19.7183 10.1945 19.8448 10.0167 20.0568L8.04688 22.4041L6.29453 20.8436L11.6427 10.2295L18.5441 24.1191L16.8781 25.7517L15.3539 24.1439C15.1246 23.9019 14.7541 23.9035 14.5265 24.1474C14.2989 24.3911 14.3004 24.785 14.5298 25.027L16.1841 26.7722C16.375 26.9734 16.6238 27.0746 16.8731 27.0746C17.1104 27.0746 17.3481 26.9829 17.5361 26.7986L19.1099 25.2565L21.8424 30.7558H1.29992Z" fill="white"/>
</svg>
