<svg width="24" height="24" viewBox="0 0 24 24" fill="none" xmlns="http://www.w3.org/2000/svg">
<g clip-path="url(#clip0_421_516)">
<path d="M24 18.5885C23.6507 18.7206 23.2651 18.7203 22.916 18.5877C22.5669 18.4551 22.2785 18.1992 22.105 17.8685L18.655 13.0975L18.155 12.4305L14.152 17.8745C13.989 18.1914 13.7162 18.438 13.3845 18.5683C13.0529 18.6986 12.6851 18.7037 12.35 18.5825L17.508 11.6625L12.71 5.41151C13.055 5.28719 13.4323 5.28554 13.7784 5.40684C14.1244 5.52815 14.4181 5.765 14.61 6.07751L18.186 10.9075L21.782 6.09751C21.9463 5.7863 22.2192 5.5463 22.5488 5.42314C22.8785 5.29998 23.2419 5.30225 23.57 5.42951L21.708 7.90051L19.186 11.1835C19.116 11.246 19.0599 11.3226 19.0216 11.4082C18.9832 11.4939 18.9633 11.5867 18.9633 11.6805C18.9633 11.7744 18.9832 11.8672 19.0216 11.9528C19.0599 12.0385 19.116 12.115 19.186 12.1775L23.99 18.5895L24 18.5885ZM0.002012 11.5765L0.422012 9.50151C1.57601 5.39851 6.28001 3.69151 9.51601 6.23151C11.411 7.72051 11.884 9.82851 11.791 12.2045H1.11601C0.943012 16.4475 4.00501 19.0095 7.92001 17.7005C8.55467 17.4721 9.12275 17.0898 9.57337 16.5878C10.024 16.0859 10.3431 15.48 10.502 14.8245C10.709 14.1585 11.05 14.0445 11.676 14.2365C11.5717 15.0489 11.2845 15.827 10.8361 16.5124C10.3876 17.1978 9.78963 17.7726 9.08701 18.1935C7.92643 18.8283 6.59484 19.08 5.28264 18.9124C3.97043 18.7448 2.74481 18.1666 1.78101 17.2605C0.828041 16.1879 0.252088 14.833 0.141012 13.4025C0.141012 13.1675 0.061012 12.9475 0.007012 12.7365C0.00214403 12.3502 -0.000189357 11.9639 1.19963e-05 11.5775L0.002012 11.5765ZM1.12901 11.2905H10.783C10.723 8.21451 8.78201 6.03251 6.19301 6.01251C3.31101 5.97251 1.24901 8.10651 1.12201 11.2765L1.12901 11.2905Z" fill="black"/>
</g>
<defs>
<clipPath id="clip0_421_516">
<rect width="24" height="24" fill="white"/>
</clipPath>
</defs>
</svg>
