<svg width="49" height="32" viewBox="0 0 49 32" fill="none" xmlns="http://www.w3.org/2000/svg">
<path d="M48.7413 25.2811C46.0513 22.4677 42.6575 20.6751 38.9243 20.0973C38.4458 20.0232 38.0035 20.3747 37.9339 20.8769C37.8644 21.38 38.1954 21.8496 38.6711 21.9237C41.7256 22.3962 44.5435 23.7807 46.8497 25.9366C44.0122 28.5843 40.3708 30.0771 36.543 30.1504C32.9072 30.2227 29.3938 29.0018 26.5424 26.7077C35.2272 25.5267 42.0093 17.6681 42.0566 8.21932C42.0594 7.97484 41.9648 7.73507 41.8035 7.56268C41.6282 7.37615 41.3917 7.27435 41.1664 7.2917C37.4666 7.31642 33.9337 8.5397 30.9488 10.83C30.5594 11.1295 30.4731 11.7076 30.7569 12.1192C30.8932 12.3184 31.0963 12.4493 31.3244 12.4881C31.5553 12.527 31.7861 12.4687 31.9753 12.324C34.4149 10.4517 37.2774 9.36551 40.2818 9.16899C40.0342 13.3496 38.3262 17.2568 35.4387 20.2153C32.9406 22.7763 29.7916 24.3829 26.4089 24.8619C31.7639 17.5419 31.3383 6.94867 25.0903 0.268297C24.929 0.0979576 24.7036 0 24.47 0C24.2335 0 24.0082 0.0979633 23.8496 0.268011C21.1874 3.11203 19.4933 6.70155 18.9481 10.6491C18.8785 11.1522 19.2095 11.6217 19.6852 11.6962C20.1609 11.7671 20.606 11.417 20.6728 10.9162C21.1207 7.68741 22.4309 4.70688 24.4672 2.26797C27.0682 5.38825 28.4563 9.40847 28.3812 13.6408C28.3172 17.3036 27.16 20.7843 25.0931 23.6462C23.9859 14.5366 16.6447 7.39203 7.82387 7.29583C7.58602 7.29406 7.36403 7.38791 7.19685 7.56296C7.03272 7.73478 6.93869 7.97396 6.93869 8.21873V9.93126C6.93869 9.96157 6.93981 9.99217 6.94287 10.0248C7.24498 13.1636 8.30985 16.1903 10.0226 18.7781C10.2975 19.1941 10.8419 19.2962 11.2377 19.0052C11.4285 18.8637 11.5562 18.6522 11.5966 18.4098C11.6372 18.1668 11.586 17.922 11.4522 17.7199C9.91857 15.4028 8.96134 12.6938 8.68343 9.8839V9.17693C12.591 9.45201 16.2441 11.2631 19.0093 14.3057C21.3988 16.9347 22.8983 20.2418 23.3461 23.7851C16.475 18.1874 6.51724 18.7387 0.261218 25.2196C0.0937527 25.3935 0.00112808 25.6259 1.53529e-05 25.8733C-0.00137555 26.1184 0.0918 26.3584 0.255649 26.5308L1.39731 27.7379C1.41845 27.7609 1.44072 27.7824 1.46631 27.8047C4.58667 30.4943 8.52962 31.9756 12.5691 31.9756C12.5696 31.9756 12.5705 31.9756 12.5705 31.9756H12.603C15.7601 31.9729 18.8563 31.0759 21.5574 29.3813C21.7577 29.2557 21.8996 29.0548 21.958 28.8159C22.0136 28.5773 21.9802 28.3287 21.8634 28.1169C21.7438 27.9053 21.5546 27.7547 21.3293 27.6938C21.1012 27.6323 20.8675 27.6685 20.6672 27.7941C18.2359 29.3187 15.4485 30.1262 12.6058 30.1301H12.5613C8.93993 30.1277 5.40425 28.8044 2.60324 26.4029L2.13006 25.9033C5.08017 23.1705 8.86622 21.7086 12.8495 21.7754C16.973 21.8454 20.8453 23.5556 23.7467 26.5909C23.7495 26.592 23.7495 26.5932 23.7523 26.5941C23.7523 26.5962 23.755 26.5979 23.755 26.5997C27.0876 30.0821 31.5219 32 36.2426 32C36.2426 32 36.2426 32 36.2454 32C40.9689 31.9997 45.4087 30.0795 48.7413 26.5929C48.9054 26.4205 49 26.1813 49 25.9369C49 25.6921 48.9054 25.4532 48.7413 25.2811Z" fill="white"/>
</svg>
