<svg width="22" height="24" viewBox="0 0 22 24" fill="none" xmlns="http://www.w3.org/2000/svg">
<g clip-path="url(#clip0_421_512)">
<path fill-rule="evenodd" clip-rule="evenodd" d="M12.7176 2.74692L17.6465 5.59275C17.7887 5.44219 17.952 5.31296 18.1313 5.20908C19.1535 4.62142 20.4573 4.97033 21.051 5.99258C21.6387 7.01483 21.2898 8.31858 20.2675 8.91233C20.0896 9.01478 19.8979 9.09112 19.6983 9.139V14.8328C19.8957 14.8807 20.0854 14.9565 20.2615 15.0579C21.2898 15.6517 21.6387 16.9555 21.045 17.9778C20.4573 18.9999 19.1474 19.3488 18.1251 18.7613C17.9271 18.6476 17.7487 18.5028 17.5968 18.3323L12.698 21.1607C12.7697 21.3779 12.8061 21.6052 12.8059 21.834C12.8059 23.0093 11.851 23.9703 10.6696 23.9703C9.4882 23.9703 8.53337 23.0153 8.53337 21.834C8.53337 21.624 8.56353 21.4212 8.61978 21.2296L3.69228 18.3846C3.55155 18.5322 3.39055 18.659 3.21412 18.7613C2.18578 19.3488 0.881951 18.9999 0.294285 17.9778C-0.293299 16.9555 0.0556179 15.6517 1.07778 15.0579C1.25388 14.9565 1.4435 14.8807 1.64095 14.8327V9.139C1.44132 9.09112 1.24961 9.01478 1.0717 8.91233C0.0494512 8.32475 -0.299465 7.01483 0.288201 5.99258C0.875868 4.97033 2.1857 4.62142 3.20795 5.20908C3.38621 5.31241 3.5487 5.4408 3.69045 5.59033L8.6207 2.74375C8.56258 2.54649 8.53317 2.34189 8.53337 2.13625C8.53337 0.955 9.4882 0 10.6696 0C11.851 0 12.8059 0.954917 12.8059 2.13625C12.8059 2.34858 12.775 2.5535 12.7176 2.74692ZM12.2041 3.62375L17.1447 6.47625C17.066 6.75125 17.0435 7.03927 17.0784 7.32317C17.1132 7.60707 17.2049 7.88106 17.3478 8.12883C17.6485 8.652 18.1385 8.99883 18.6822 9.134V14.8348C18.6545 14.8416 18.6269 14.849 18.5995 14.8568L12.1467 3.68083C12.1662 3.66217 12.1854 3.64317 12.2041 3.62383V3.62375ZM9.19387 3.68208L2.7412 14.8579C2.7133 14.8498 2.68524 14.8423 2.65703 14.8354V9.134C3.20078 8.99883 3.6907 8.652 3.99145 8.12883C4.13465 7.88058 4.22636 7.60602 4.26111 7.32155C4.29586 7.03707 4.27293 6.74851 4.1937 6.47308L9.13287 3.62142C9.15278 3.642 9.17312 3.66225 9.19387 3.682V3.68208ZM11.2665 4.18833L17.7177 15.3617C17.5699 15.5027 17.4433 15.6643 17.3416 15.8414C17.2402 16.0175 17.1644 16.2071 17.1165 16.4046H4.22295C4.17493 16.2071 4.09906 16.0175 3.99762 15.8414C3.89562 15.6655 3.76919 15.5049 3.62212 15.3644L10.0745 4.18883C10.268 4.24453 10.4683 4.2727 10.6696 4.2725C10.8769 4.2725 11.0771 4.24317 11.2665 4.18833ZM12.2495 20.3948L17.158 17.5608C17.1432 17.5146 17.1301 17.4678 17.1185 17.4207H4.2202C4.21336 17.4484 4.20597 17.4759 4.19803 17.5033L9.13053 20.3513C9.32972 20.1441 9.56876 19.9795 9.83326 19.8671C10.0978 19.7548 10.3823 19.6972 10.6696 19.6978C10.967 19.6972 11.2612 19.759 11.5333 19.879C11.8054 19.9991 12.0494 20.1748 12.2495 20.3948V20.3948Z" fill="#E535AB"/>
</g>
<defs>
<clipPath id="clip0_421_512">
<rect width="21.34" height="24" fill="white"/>
</clipPath>
</defs>
</svg>
