<svg width="11" height="24" viewBox="0 0 11 24" fill="none" xmlns="http://www.w3.org/2000/svg">
<path fill-rule="evenodd" clip-rule="evenodd" d="M5.9204 24L5.28156 23.7816C5.28156 23.7816 5.35958 20.5248 4.19064 20.291C3.41164 19.3871 4.31561 -18.0452 7.12058 20.1662C7.12058 20.1662 6.15429 20.6492 5.98289 21.4753C5.79578 22.2858 5.9204 24 5.9204 24V24Z" fill="white"/>
<path fill-rule="evenodd" clip-rule="evenodd" d="M5.9204 24L5.28156 23.7816C5.28156 23.7816 5.35958 20.5248 4.19064 20.291C3.41164 19.3871 4.31561 -18.0452 7.12058 20.1662C7.12058 20.1662 6.15429 20.6492 5.98289 21.4753C5.79578 22.2858 5.9204 24 5.9204 24V24Z" fill="#A6A385"/>
<path fill-rule="evenodd" clip-rule="evenodd" d="M6.26307 20.8531C6.26307 20.8531 11.8578 17.1753 10.5485 9.52349C9.28639 3.96034 6.30985 2.13702 5.98258 1.4357C5.62423 0.937016 5.28125 0.0644531 5.28125 0.0644531L5.51514 15.5389C5.51514 15.5546 5.03199 20.2764 6.26324 20.8533" fill="white"/>
<path fill-rule="evenodd" clip-rule="evenodd" d="M6.26307 20.8531C6.26307 20.8531 11.8578 17.1753 10.5485 9.52349C9.28639 3.96034 6.30985 2.13702 5.98258 1.4357C5.62423 0.937016 5.28125 0.0644531 5.28125 0.0644531L5.51514 15.5389C5.51514 15.5546 5.03199 20.2764 6.26324 20.8533" fill="#499D4A"/>
<path fill-rule="evenodd" clip-rule="evenodd" d="M4.95354 21.0536C4.95354 21.0536 -0.29839 17.4693 0.0133484 11.1581C0.309381 4.84663 4.01832 1.74546 4.73519 1.18447C5.20279 0.68579 5.21833 0.49868 5.24957 0C5.57684 0.701326 5.51453 10.488 5.56114 11.641C5.7013 16.0824 5.31188 20.2123 4.95354 21.0536Z" fill="white"/>
<path fill-rule="evenodd" clip-rule="evenodd" d="M4.95354 21.0536C4.95354 21.0536 -0.29839 17.4693 0.0133484 11.1581C0.309381 4.84663 4.01832 1.74546 4.73519 1.18447C5.20279 0.68579 5.21833 0.49868 5.24957 0C5.57684 0.701326 5.51453 10.488 5.56114 11.641C5.7013 16.0824 5.31188 20.2123 4.95354 21.0536Z" fill="#58AA50"/>
</svg>
