<svg width="27" height="24" viewBox="0 0 27 24" fill="none" xmlns="http://www.w3.org/2000/svg">
<g clip-path="url(#clip0_419_500)">
<path d="M22.162 7.77093C21.8752 7.67254 21.586 7.58138 21.2946 7.49756C21.3435 7.29756 21.3886 7.09998 21.4286 6.90588C22.0852 3.7184 21.656 1.15051 20.1898 0.305034C18.784 -0.505492 16.4849 0.339666 14.163 2.3604C13.9342 2.55991 13.7104 2.76517 13.492 2.97598C13.3457 2.8358 13.1969 2.69834 13.0455 2.56367C10.6121 0.403034 8.17291 -0.507597 6.70828 0.340297C5.30375 1.15335 4.88786 3.56735 5.47902 6.58819C5.53783 6.88738 5.60424 7.18502 5.67818 7.48082C5.33291 7.57893 4.99975 7.68335 4.68091 7.79451C1.82786 8.78924 0.00585938 10.3481 0.00585938 11.965C0.00585938 13.635 1.96186 15.3101 4.93344 16.3258C5.17435 16.4078 5.41727 16.4838 5.66196 16.5537C5.58249 16.8723 5.51194 17.193 5.45039 17.5156C4.88681 20.484 5.32691 22.8409 6.72765 23.6488C8.17439 24.4831 10.6026 23.6257 12.9669 21.5588C13.1586 21.3908 13.3461 21.218 13.5292 21.0406C13.7658 21.2689 14.0087 21.4905 14.2576 21.7052C16.548 23.676 18.8099 24.4718 20.2092 23.6617C21.6546 22.8249 22.1244 20.2929 21.5145 17.2124C21.4664 16.9711 21.4126 16.7309 21.3529 16.4922C21.5234 16.4417 21.6908 16.3897 21.854 16.3356C24.9432 15.3121 26.9532 13.6573 26.9532 11.965C26.9532 10.3422 25.0724 8.77282 22.162 7.77093V7.77093ZM21.492 15.2429C21.3446 15.2917 21.1934 15.3387 21.0393 15.3845C20.6983 14.3048 20.2381 13.1568 19.6748 11.9706C20.2123 10.8127 20.6548 9.67935 20.9863 8.60672C21.262 8.68651 21.5294 8.77061 21.7873 8.85935C24.281 9.71788 25.8021 10.987 25.8021 11.965C25.8021 13.0067 24.1593 14.359 21.492 15.2429V15.2429ZM20.3852 17.436C20.6549 18.7981 20.6933 20.0297 20.5147 20.9925C20.3543 21.8577 20.0315 22.4344 19.6324 22.6655C18.7832 23.157 16.9671 22.5181 15.0085 20.8326C14.7769 20.633 14.551 20.4269 14.3309 20.2147C15.0903 19.3843 15.8491 18.4189 16.5898 17.3467C17.8925 17.2311 19.1232 17.0421 20.2393 16.7841C20.2931 17.0002 20.3417 17.2176 20.3852 17.436V17.436ZM9.19281 22.5805C8.36312 22.8735 7.70228 22.8819 7.30281 22.6516C6.45281 22.1614 6.09944 20.2688 6.58144 17.7303C6.63873 17.4303 6.70434 17.132 6.77818 16.8357C7.88196 17.0799 9.10375 17.2555 10.4095 17.3614C11.1552 18.4105 11.936 19.3748 12.7228 20.2192C12.5556 20.381 12.3844 20.5387 12.2094 20.6921C11.1639 21.606 10.1162 22.2544 9.19281 22.5805V22.5805ZM5.30586 15.2365C3.99186 14.7874 2.9067 14.2037 2.16291 13.5667C1.49449 12.9944 1.15712 12.4261 1.15712 11.965C1.15712 10.9838 2.61996 9.73219 5.05986 8.88156C5.35596 8.7784 5.66586 8.68103 5.98744 8.58967C6.3247 9.68651 6.76702 10.8333 7.30081 11.993C6.76007 13.1699 6.31144 14.335 5.97091 15.4448C5.74755 15.3808 5.5258 15.3114 5.30586 15.2365V15.2365ZM6.60881 6.36703C6.10239 3.77893 6.4387 1.82661 7.28512 1.33661C8.1866 0.814718 10.1801 1.55882 12.2812 3.42451C12.4182 3.54644 12.553 3.67085 12.6855 3.79767C11.9026 4.6384 11.129 5.59556 10.39 6.63851C9.1226 6.75598 7.90944 6.94461 6.79407 7.19735C6.72535 6.92221 6.66358 6.64539 6.60881 6.36714V6.36703ZM18.2327 9.23735C17.9693 8.78229 17.696 8.33296 17.4132 7.88967C18.273 7.9984 19.0968 8.14272 19.8704 8.31914C19.6382 9.06356 19.3487 9.84177 19.008 10.6397C18.7589 10.1671 18.5004 9.69958 18.2327 9.23735V9.23735ZM13.4925 4.6204C14.0234 5.19567 14.5552 5.83788 15.0783 6.53472C14.0172 6.48461 12.9544 6.4844 11.8933 6.53409C12.4169 5.84367 12.9532 5.2023 13.4925 4.6204ZM8.72186 9.24524C8.45747 9.70375 8.20383 10.1684 7.96112 10.6387C7.62596 9.84367 7.33912 9.06188 7.10491 8.30693C7.87375 8.13493 8.69365 7.9943 9.54796 7.88756C9.26201 8.33356 8.98656 8.78621 8.72186 9.24514V9.24524ZM9.57249 16.1244C8.68986 16.0259 7.85765 15.8925 7.08902 15.7251C7.32691 14.9567 7.62007 14.1583 7.96249 13.3462C8.20616 13.8169 8.46086 14.2818 8.72639 14.7405C8.99944 15.2121 9.28218 15.674 9.57249 16.1244ZM13.5243 19.3907C12.9786 18.8021 12.4344 18.1508 11.9029 17.4504C12.4189 17.4706 12.9449 17.4809 13.4795 17.4809C14.0288 17.4809 14.5718 17.4686 15.1062 17.4448C14.5814 18.1579 14.0516 18.8101 13.5243 19.3907ZM19.0188 13.3047C19.379 14.1258 19.6826 14.92 19.9236 15.6752C19.1424 15.8536 18.2988 15.9971 17.41 16.1038C17.6948 15.6522 17.9706 15.1951 18.2372 14.7326C18.5083 14.2625 18.7689 13.7864 19.0188 13.3047V13.3047ZM17.2401 14.1575C16.8319 14.8665 16.4007 15.5622 15.9473 16.2432C15.126 16.3014 14.3029 16.3303 13.4795 16.3299C12.6409 16.3299 11.8252 16.3038 11.0398 16.2528C10.5745 15.5733 10.1351 14.8765 9.7226 14.1638H9.7227C9.31209 13.4548 8.92855 12.7306 8.57291 11.9925C8.92764 11.2543 9.31002 10.5297 9.71923 9.82019L9.71912 9.8203C10.1282 9.11064 10.564 8.41677 11.0258 7.74019C11.8271 7.67956 12.6489 7.64798 13.4794 7.64798H13.4795C14.3139 7.64798 15.1367 7.67988 15.9379 7.74093C16.3949 8.41649 16.828 9.10798 17.2363 9.81409C17.6469 10.522 18.0343 11.2431 18.398 11.9762C18.038 12.7168 17.6518 13.4443 17.2401 14.1575V14.1575ZM19.6148 1.3023C20.5171 1.82272 20.8681 3.92135 20.3011 6.67346C20.2649 6.84903 20.2243 7.02788 20.1801 7.20924C19.062 6.95114 17.848 6.75924 16.5769 6.63998C15.8365 5.58556 15.0692 4.62693 14.299 3.79703C14.5009 3.60246 14.7075 3.41292 14.9188 3.22861C16.9083 1.49735 18.7676 0.813771 19.6148 1.3023V1.3023ZM13.4795 9.55872C14.8085 9.55872 15.8859 10.6361 15.8859 11.965C15.8859 13.294 14.8085 14.3714 13.4795 14.3714C12.1506 14.3714 11.0732 13.294 11.0732 11.965C11.0732 10.6361 12.1506 9.55872 13.4795 9.55872V9.55872Z" fill="#00D8FF"/>
</g>
<defs>
<clipPath id="clip0_419_500">
<rect width="26.96" height="24" fill="white"/>
</clipPath>
</defs>
</svg>
