<svg width="24" height="24" viewBox="0 0 24 24" fill="none" xmlns="http://www.w3.org/2000/svg">
<g clip-path="url(#clip0_419_505)">
<path d="M23.9901 15.3773C23.9212 14.8186 23.6381 14.3339 23.1464 13.935C23.1402 13.9275 23.1335 13.9206 23.1262 13.9143L23.1014 13.8965L23.0934 13.8909L22.8323 13.7034L22.8234 13.6968L22.7901 13.6734C22.7779 13.6663 22.7648 13.6608 22.7512 13.657C21.9253 13.1653 20.5579 12.8208 18.4659 13.559C17.9667 12.719 17.91 12.0459 18.2442 11.0147C18.3037 10.8351 18.2484 10.7165 18.0703 10.6397C17.7121 10.4873 17.2218 10.5651 16.874 10.657C16.7118 10.6992 16.6143 10.7911 16.5834 10.9303C16.3631 11.9615 15.7228 12.9037 15.1036 13.8131L15.067 13.8665C14.6854 13.0575 14.7646 12.4308 15.0304 11.6456C15.0834 11.489 15.0417 11.385 14.895 11.3072C14.4853 11.0958 13.8707 11.2411 13.626 11.3133C13.3157 11.4037 12.9829 12.2423 12.6112 13.2464C12.5175 13.499 12.4368 13.7151 12.3885 13.8159C12.2737 14.0503 12.164 14.3175 12.0478 14.6011C11.7853 15.2428 11.4895 15.9651 11.0667 16.4189C10.9129 16.079 11.1548 15.5433 11.3896 15.0234C11.6676 14.4089 11.9301 13.8281 11.6278 13.4573C11.58 13.3987 11.5206 13.3505 11.4535 13.3157C11.3863 13.2808 11.3128 13.2601 11.2373 13.2548C11.1388 13.2473 11.04 13.2634 10.949 13.3017C10.9804 13.0368 10.9818 12.8278 10.9045 12.5751C10.7939 12.2147 10.5065 12.0126 10.1109 12.0234C9.20995 12.0497 8.44777 12.7209 7.96636 13.2797C7.64574 13.6547 6.93511 13.9406 6.3112 14.1914C6.06464 14.2959 5.83027 14.3897 5.6348 14.4834C5.32308 14.22 4.92699 13.9542 4.5098 13.6734C3.33792 12.8868 2.00995 11.9948 1.96402 10.7854C1.89839 8.99903 3.93277 7.732 5.70839 6.82778C7.05417 6.14341 8.22417 5.68966 9.28542 5.44169C10.776 5.09341 12.0351 5.16372 13.027 5.64981C13.5698 5.91559 13.8239 6.49356 13.6626 7.08794C13.2407 8.63247 11.4928 9.69091 9.99792 10.1672C9.09745 10.454 8.33105 10.574 7.65417 10.5347C6.80574 10.4854 6.11292 10.0598 5.81667 9.87841C5.76921 9.84599 5.71902 9.81776 5.66667 9.79403L5.65308 9.79075C5.62625 9.78408 5.59811 9.78492 5.57173 9.79319C5.54535 9.80146 5.52176 9.81683 5.50355 9.83763C5.44261 9.91028 5.46417 10.0251 5.4862 10.0833C5.77449 10.8365 6.3698 11.3123 7.25527 11.4975C7.54506 11.5555 7.84004 11.5836 8.13558 11.5814C10.2079 11.5814 12.8521 10.3865 13.8234 9.40263C14.4857 8.73231 14.9681 8.04325 15.1678 6.85497C15.3764 5.61044 14.5326 4.74559 13.6729 4.34716C11.5837 3.38294 9.21089 3.76403 7.58808 4.25341C5.68964 4.82575 3.72558 5.86638 2.20027 7.1095C0.319642 8.64091 -0.360046 10.0626 0.179017 11.34C0.732611 12.6492 2.08261 13.4681 3.38808 14.2603C3.80995 14.5158 4.2112 14.759 4.57261 15.0103C4.46386 15.0633 4.35277 15.1172 4.2398 15.1711C3.14386 15.7022 1.90074 16.2998 1.2112 17.2875C0.710579 18.007 0.616829 18.7233 0.932767 19.4165C1.10152 19.7854 1.40152 20.0358 1.81824 20.1604C2.03501 20.2219 2.25951 20.2517 2.4848 20.249C3.2962 20.249 4.18917 19.9209 4.67527 19.6176C5.53402 19.0786 6.09042 18.3548 6.32949 17.4665C6.5423 16.6762 6.4912 15.8911 6.18183 15.1903L7.23417 14.6597C6.72652 16.3472 7.11558 17.355 7.54308 17.9109C7.70058 18.1158 7.98464 18.239 8.30199 18.2447C8.61933 18.2503 8.91136 18.1308 9.07636 17.9273C9.38855 17.5406 9.61917 17.0883 9.83152 16.6359C9.82027 16.9312 9.83433 17.2303 9.93511 17.4839C10.0256 17.7122 10.1746 17.8636 10.3668 17.9217C10.5712 17.984 10.8107 17.9315 11.0414 17.774C12.0806 17.0629 12.7912 15.3562 13.3621 13.9842C13.4432 13.7892 13.521 13.6017 13.5965 13.4264C13.7378 13.9319 13.9343 14.4203 14.1825 14.8828C14.2378 14.9831 14.2331 15.0272 14.1581 15.1097C14.0451 15.2334 13.8876 15.3829 13.7207 15.5414C13.2154 16.0209 12.5864 16.6195 12.502 17.1459C12.4692 17.3568 12.6145 17.549 12.84 17.5926C13.5182 17.7276 14.3353 17.5303 15.0262 17.0653C15.6543 16.6434 15.8906 16.0551 15.7293 15.322C15.5732 14.6161 15.9295 13.7395 16.7882 12.7148C16.9289 13.3022 17.1164 13.777 17.3751 14.1928L17.3681 14.1984C16.7428 14.7445 15.8859 15.4922 16.019 16.3992C16.0302 16.4854 16.0592 16.5684 16.1043 16.6428C16.1493 16.7173 16.2093 16.7815 16.2806 16.8314C16.3567 16.8828 16.4426 16.9179 16.533 16.9345C16.6233 16.9511 16.7161 16.9489 16.8056 16.9279C17.6245 16.7559 18.2409 16.4095 18.689 15.87C19.1371 15.3304 18.9736 14.7323 18.8226 14.2683C19.9945 13.9504 21.0379 13.9584 22.0148 14.2917C22.5632 14.4792 22.9565 14.7872 23.1834 15.2123C23.4689 15.7472 23.3146 16.2408 22.7479 16.6022C22.574 16.7133 22.4901 16.7812 22.485 16.867C22.4838 16.8869 22.4875 16.9068 22.4956 16.925C22.5038 16.9432 22.5162 16.9591 22.5318 16.9715C22.5975 17.0254 22.8 17.1192 23.2579 16.8309C23.6798 16.5661 23.9273 16.2056 23.9906 15.7528C24.0033 15.6279 24.0032 15.5021 23.9901 15.3773V15.3773ZM5.25277 16.552L5.24808 16.612C5.17495 17.2983 4.8262 17.8964 4.2098 18.3933C3.82261 18.7054 3.40214 18.8972 3.0262 18.9337C2.7637 18.959 2.57292 18.9234 2.45949 18.8273C2.37464 18.7556 2.32917 18.6483 2.31886 18.4992C2.24199 17.3048 4.11511 16.1179 5.16933 15.7275C5.24457 15.9954 5.2728 16.2744 5.25277 16.552V16.552ZM10.0504 13.1836C9.87699 14.1722 9.3712 16.0383 8.5762 16.7625C8.53824 16.7972 8.50636 16.8093 8.49183 16.8061C8.4773 16.8028 8.46605 16.7854 8.45433 16.7592C8.18902 16.1442 8.28699 15.1054 8.6887 14.2893C8.99761 13.6603 9.4387 13.2436 9.93183 13.1175C9.9523 13.1118 9.97341 13.1088 9.99464 13.1086C10.0112 13.1074 10.0278 13.1119 10.0415 13.1212C10.0473 13.1304 10.0511 13.1407 10.0526 13.1514C10.0542 13.1622 10.0534 13.1731 10.0504 13.1836V13.1836ZM13.964 16.7873C13.8145 16.9434 13.6096 16.9223 13.6579 16.8651L14.4192 16.057C14.3578 16.335 14.1764 16.5651 13.964 16.7873V16.7873ZM17.122 16.0884C17.0496 16.1241 16.9713 16.1462 16.8909 16.1536C16.8693 15.7284 17.2814 15.2498 17.6878 14.9306C17.797 15.374 17.5734 15.8428 17.122 16.0884Z" fill="#CD6799"/>
</g>
<defs>
<clipPath id="clip0_419_505">
<rect width="24" height="24" fill="white"/>
</clipPath>
</defs>
</svg>
