<svg width="24" height="24" viewBox="0 0 24 24" fill="none" xmlns="http://www.w3.org/2000/svg">
<g clip-path="url(#clip0_419_502)">
<path d="M3.65103 3.36366C8.3929 -1.22999 15.9748 -1.10652 20.5685 3.66001C21.0871 2.96851 21.5317 2.20294 21.8528 1.41263C23.3593 6.00629 24.2731 9.85904 23.9273 12.8473C23.7544 15.3664 22.7666 17.7867 21.1365 19.7131C16.8887 24.7513 9.33134 25.3934 4.29312 21.1456L4.19675 21.0598L4.19159 21.0564C4.17574 21.0454 4.16017 21.0339 4.1449 21.022C4.09896 20.9863 4.05725 20.9474 4.01965 20.9058L4.00615 20.8904L3.84865 20.7504C3.6949 20.6187 3.54125 20.487 3.40493 20.3379L3.35468 20.2811C-1.23907 15.5393 -1.09085 7.95732 3.65093 3.36366H3.65103ZM5.42909 19.4415C4.98453 19.0958 4.34243 19.1451 3.99659 19.5896C3.69265 19.9806 3.69415 20.5242 4.00118 20.8848L4.00606 20.8904L4.19665 21.0598L4.2154 21.0726C4.64703 21.3564 5.2279 21.2978 5.55912 20.8965L5.57731 20.8739C5.92306 20.4294 5.849 19.7873 5.42918 19.4414L5.42909 19.4415ZM21.7294 2.64741C20.4944 5.24063 17.4319 7.21641 14.7894 7.83385C12.295 8.42654 10.1216 7.93266 7.82478 8.82169C2.58903 10.8222 2.68784 17.0458 5.55265 18.4536L5.72553 18.5524C5.72553 18.5524 7.79496 18.1409 9.84134 17.5975L10.0167 17.5507C10.834 17.3304 11.6381 17.0904 12.295 16.8483C15.7032 15.5888 19.4572 12.4769 20.692 8.8711C20.0499 12.625 16.8146 16.2555 13.5792 17.9103C11.8504 18.7993 10.5168 18.9969 7.67665 19.9848C7.3309 20.1083 7.05921 20.2318 7.05921 20.2318L7.16309 20.2178L7.23209 20.2089L7.30081 20.2002C7.928 20.1224 8.49162 20.0836 8.49162 20.0836C12.5172 19.886 18.8397 21.2197 21.7787 17.2929C24.7917 13.2919 23.1123 6.82126 21.7293 2.64741H21.7294Z" fill="#6DB33F"/>
<path d="M5.42925 19.4406C5.84916 19.7863 5.92322 20.4284 5.57738 20.873C5.23172 21.3175 4.58954 21.367 4.14497 21.0211C3.7005 20.6754 3.6511 20.0333 3.99685 19.5887C4.3426 19.1441 4.98469 19.0948 5.42935 19.4406H5.42925ZM21.7295 2.64648C23.1125 6.82033 24.7919 13.291 21.7789 17.2919C18.8398 21.2187 12.5174 19.885 8.49179 20.0827C8.49179 20.0827 7.92816 20.1216 7.30097 20.1993L7.23225 20.2079C7.17488 20.2152 7.11713 20.2229 7.05938 20.2309C7.05938 20.2309 7.33107 20.1073 7.67682 19.9839C10.517 18.996 11.8506 18.7984 13.5793 17.9094C16.8147 16.2547 20.05 12.6241 20.6921 8.87017C19.4573 12.476 15.7033 15.5878 12.2951 16.8474C9.94894 17.7117 5.72569 18.5515 5.72569 18.5515L5.55282 18.4526C2.688 17.0449 2.58919 10.8213 7.82494 8.82077C10.1218 7.93173 12.2951 8.42561 14.7896 7.83292C17.4322 7.21548 20.4946 5.2398 21.7295 2.64648V2.64648Z" fill="white"/>
</g>
<defs>
<clipPath id="clip0_419_502">
<rect width="24" height="24" fill="white"/>
</clipPath>
</defs>
</svg>
