<svg viewBox="0 0 27 32" fill="none" xmlns="http://www.w3.org/2000/svg">
<path fill-rule="evenodd" clip-rule="evenodd" d="M23.1991 22.8861C25.5514 20.4561 27 17.1457 27 13.4998C27 6.04917 20.9507 0 13.5 0C6.04931 0 0 6.04917 0 13.4998C0 17.4827 1.72864 21.065 4.47565 23.5368C4.47593 23.5371 4.4762 23.5374 4.47648 23.5374C7.60729 26.6653 10.2085 29.2642 12.2802 31.3341C13.1192 32.2218 13.9233 32.2221 14.692 31.3341L22.9277 23.1589C22.9819 23.1061 23.0355 23.0527 23.0888 22.9987L23.2021 22.8864L23.1991 22.8861ZM10.2844 8.25237H17.037C17.2148 8.25237 17.3587 8.38795 17.3587 8.55558V9.1617C17.3587 9.32909 17.2148 9.4649 17.037 9.4649H10.2844C10.1074 9.4649 9.96299 9.32852 9.96299 9.1617V8.55558C9.96299 8.38875 10.1074 8.25237 10.2844 8.25237ZM8.99824 10.3742H18.0018C18.6448 10.3742 18.9665 10.6774 18.9665 11.2836V14.9212C18.9665 15.5273 18.3384 15.8117 18.0018 15.8117L8.99824 15.8306C8.35516 15.8306 8.0335 15.5273 8.0335 14.9212V11.2836C8.0335 10.6774 8.35516 10.3742 8.99824 10.3742ZM6.104 10.6774C5.74984 10.6774 5.46097 10.9494 5.46097 11.2836V13.7087C5.46097 14.0426 5.74984 14.3148 6.104 14.3148V10.6774ZM20.896 10.6774V14.3148C21.2513 14.3148 21.539 14.0426 21.539 13.7087V11.2836C21.539 10.9494 21.2513 10.6774 20.896 10.6774ZM9.1591 17.346C9.78046 17.346 10.2844 17.821 10.2844 18.407C10.2844 18.9929 9.78046 19.4679 9.1591 19.4679C8.5374 19.4679 8.0335 18.9929 8.0335 18.407C8.0335 17.821 8.5374 17.346 9.1591 17.346ZM17.8409 17.346C18.4626 17.346 18.9665 17.821 18.9665 18.407C18.9665 18.9929 18.4626 19.4679 17.8409 19.4679C17.2195 19.4679 16.7156 18.9929 16.7156 18.407C16.7156 17.821 17.2195 17.346 17.8409 17.346ZM9.31962 7.03984C7.20931 7.03984 6.42571 7.69687 6.42571 9.4649V19.4679C6.42571 19.8801 6.55373 20.1772 6.74737 20.3966V21.2868C6.74737 21.7876 7.18071 22.1962 7.71184 22.1962H8.99824C9.52937 22.1962 9.96299 21.7876 9.96299 21.2868V20.9836H17.037V21.2868C17.037 21.7876 17.4706 22.1962 18.0018 22.1962H19.2882C19.8193 22.1962 20.2526 21.7876 20.2526 21.2868V20.3961C20.4463 20.1772 20.5743 19.8798 20.5743 19.4679V9.76782C20.5743 8.44797 20.4007 7.03984 18.3234 7.03984H9.31962Z" fill="white"/>
</svg>
