<svg width="16" height="16" viewBox="0 0 16 16" fill="none" xmlns="http://www.w3.org/2000/svg">
<path d="M8 4C5.79333 4 4 5.79333 4 8C4 10.2067 5.79333 12 8 12C10.2067 12 12 10.2067 12 8C12 5.79333 10.2067 4 8 4ZM8 10.6667C6.52667 10.6667 5.33333 9.47333 5.33333 8C5.33333 6.52667 6.52667 5.33333 8 5.33333C9.47333 5.33333 10.6667 6.52667 10.6667 8C10.6667 9.47333 9.47333 10.6667 8 10.6667Z" fill="black"/>
<path d="M8.00016 3.33337C8.36683 3.33337 8.66683 3.03337 8.66683 2.66671V2.00004C8.66683 1.63337 8.36683 1.33337 8.00016 1.33337C7.6335 1.33337 7.3335 1.63337 7.3335 2.00004V2.66671C7.3335 3.03337 7.6335 3.33337 8.00016 3.33337Z" fill="black"/>
<path d="M8.00016 12.6667C7.6335 12.6667 7.3335 12.9667 7.3335 13.3334V14.0001C7.3335 14.3667 7.6335 14.6667 8.00016 14.6667C8.36683 14.6667 8.66683 14.3667 8.66683 14.0001V13.3334C8.66683 12.9667 8.36683 12.6667 8.00016 12.6667Z" fill="black"/>
<path d="M3.3335 8.00004C3.3335 7.63337 3.0335 7.33337 2.66683 7.33337H2.00016C1.6335 7.33337 1.3335 7.63337 1.3335 8.00004C1.3335 8.36671 1.6335 8.66671 2.00016 8.66671H2.66683C3.0335 8.66671 3.3335 8.36671 3.3335 8.00004Z" fill="black"/>
<path d="M14.0003 7.33337H13.3337C12.967 7.33337 12.667 7.63337 12.667 8.00004C12.667 8.36671 12.967 8.66671 13.3337 8.66671H14.0003C14.367 8.66671 14.667 8.36671 14.667 8.00004C14.667 7.63337 14.367 7.33337 14.0003 7.33337Z" fill="black"/>
<path d="M3.76013 11.3L3.2868 11.7733C3.0268 12.0333 3.0268 12.4533 3.2868 12.7133C3.42013 12.8466 3.5868 12.9066 3.76013 12.9066C3.93346 12.9066 4.10013 12.84 4.23346 12.7133L4.7068 12.24C4.9668 11.98 4.9668 11.56 4.7068 11.3C4.4468 11.04 4.0268 11.04 3.7668 11.3H3.76013Z" fill="black"/>
<path d="M11.7735 4.89334C11.9468 4.89334 12.1135 4.82667 12.2468 4.70001L12.7202 4.22667C12.9802 3.96667 12.9802 3.54667 12.7202 3.28667C12.4602 3.02667 12.0401 3.02667 11.7801 3.28667L11.3068 3.76001C11.0468 4.02001 11.0468 4.44001 11.3068 4.70001C11.4401 4.83334 11.6068 4.89334 11.7801 4.89334H11.7735Z" fill="black"/>
<path d="M12.24 11.3C11.98 11.04 11.56 11.04 11.3 11.3C11.04 11.56 11.04 11.98 11.3 12.24L11.7733 12.7133C11.9067 12.8466 12.0733 12.9066 12.2467 12.9066C12.42 12.9066 12.5867 12.84 12.72 12.7133C12.98 12.4533 12.98 12.0333 12.72 11.7733L12.2467 11.3H12.24Z" fill="black"/>
<path d="M3.7603 4.70001C3.89363 4.83334 4.0603 4.89334 4.23363 4.89334C4.40697 4.89334 4.57363 4.82667 4.70697 4.70001C4.96697 4.44001 4.96697 4.02001 4.70697 3.76001L4.23363 3.28667C3.97363 3.02667 3.55363 3.02667 3.29363 3.28667C3.03363 3.54667 3.03363 3.96667 3.29363 4.22667L3.76697 4.70001H3.7603Z" fill="black"/>
</svg>
